# xmcd
#
# Track frame offsets: 
#        151
#        69260
#        121671
#        134207
#        175147
#        212726
#        235938
#        265117
#        285014
#        294804
#        305435
#        330478
#        343083
#
# Disc length: 4692 seconds
#
# Revision: 0
# Processed by: cddbd v1.5.1PL0 Copyright (c) Steve Scherf et al.
# Submitted via: ExactAudioCopy v0.95a3
#
DISCID=b912520d
DTITLE=中国古琴 - 广陵散
DYEAR=1993
DGENRE=Country
TTITLE0=广陵散
TTITLE1=高山流水
TTITLE2=酒狂
TTITLE3=梅花三弄
TTITLE4=平沙落燕
TTITLE5=阳关三叠
TTITLE6=渔樵问答
TTITLE7=秋江夜泊
TTITLE8=风雷引
TTITLE9=关山月
TTITLE10=龙翔操
TTITLE11=双鹤听泉
TTITLE12=一剪梅
EXTD=
EXTT0=
EXTT1=
EXTT2=
EXTT3=
EXTT4=
EXTT5=
EXTT6=
EXTT7=
EXTT8=
EXTT9=
EXTT10=
EXTT11=
EXTT12=
PLAYORDER=
